<svg width="15" height="16" viewBox="0 0 15 16" fill="none" xmlns="http://www.w3.org/2000/svg">
<g clip-path="url(#clip0_1030_6758)">
<path d="M7.50763 15.5C11.6413 15.4941 15.0059 12.1225 15 7.99237C14.9941 3.85873 11.6225 0.49413 7.49239 0.499991C3.35874 0.505854 -0.00585402 3.87748 7.64736e-06 8.00761C0.00586931 12.1413 3.3775 15.5059 7.50763 15.5ZM7.49942 13.8587C4.27433 13.8587 1.63776 11.2186 1.6401 7.99237C1.64245 4.77666 4.27316 2.14477 7.48887 2.13891C10.7163 2.13422 13.3576 4.76846 13.3599 7.99354C13.3623 11.221 10.7245 13.8599 7.49942 13.8587Z" fill="#01A0C6"/>
<path d="M6.88529 9.42513C6.88529 9.94799 6.88411 10.4709 6.88529 10.9937C6.88646 11.4861 7.12679 11.7745 7.52655 11.7675C7.91342 11.7604 8.1561 11.465 8.1561 10.9972C8.1561 10.0605 8.15961 9.12501 8.15375 8.18832C8.15258 8.0453 8.19127 7.94565 8.2956 7.84365C8.96735 7.18129 9.63089 6.51071 10.3003 5.84483C10.4961 5.65022 10.5652 5.41692 10.482 5.16136C10.4046 4.92337 10.2253 4.77449 9.97087 4.7358C9.76571 4.70532 9.584 4.76628 9.43746 4.91282C8.6473 5.69946 7.8595 6.48726 7.07169 7.27625C6.9439 7.40403 6.88763 7.55995 6.8888 7.74049C6.89115 8.30204 6.88998 8.86358 6.88998 9.42513C6.88763 9.42513 6.88646 9.42513 6.88529 9.42513Z" fill="#01A0C6"/>
</g>
<defs>
<clipPath id="clip0_1030_6758">
<rect width="15" height="15" fill="white" transform="matrix(1 0 0 -1 0 15.5)"/>
</clipPath>
</defs>
</svg>
