<svg width="19" height="20" viewBox="0 0 19 20" fill="none" xmlns="http://www.w3.org/2000/svg">
<g clip-path="url(#clip0_878_2336)">
<path d="M12.1845 1.63698C11.0183 1.63698 9.85159 1.62904 8.68543 1.64064C8.22763 1.64491 7.93906 1.97077 7.91531 2.46933C7.90284 2.73295 7.91947 2.99779 7.90937 3.26202C7.89156 3.73678 7.54955 4.08095 7.11669 4.07119C6.68977 4.06203 6.35489 3.72946 6.34895 3.26934C6.33945 2.5627 6.26701 1.84323 6.6684 1.20005C7.13926 0.444585 7.80071 0.00888045 8.67712 0.00582929C11.5741 -0.00454463 14.4717 0.000337218 17.3687 0.00949068C18.3348 0.0131521 18.9968 0.713087 18.9974 1.70898C18.9998 6.53591 18.9992 11.3634 18.9974 16.1904C18.9974 17.0014 18.5836 17.5841 17.8407 17.838C16.3189 18.3579 14.7971 18.8784 13.2753 19.3977C12.1032 19.7974 11.1074 19.067 11.0902 17.8008C11.0872 17.5701 11.1864 17.2705 11.0474 17.1265C10.9079 16.9818 10.6164 17.0892 10.3919 17.0807C9.68177 17.0526 8.96747 17.1436 8.26029 17.027C7.25385 16.8616 6.41011 15.9152 6.35964 14.8711C6.32936 14.2425 6.33707 13.6109 6.34954 12.9818C6.35845 12.5223 6.70106 12.1982 7.13154 12.2007C7.56202 12.2031 7.89275 12.5284 7.90641 12.9909C7.92006 13.4681 7.91116 13.9459 7.91175 14.4238C7.91294 15.1548 8.18963 15.4447 8.8885 15.4459C9.52146 15.4471 10.1544 15.4343 10.7868 15.452C11.0302 15.4587 11.0979 15.3946 11.0967 15.1377C11.0878 11.4995 11.0908 7.86133 11.0908 4.22313C11.0908 3.99979 11.1027 3.77523 11.089 3.55249C11.0356 2.66461 11.3687 2.02203 12.1845 1.63698Z" fill="#828282"/>
<path d="M2.28865 7.31924C2.77316 7.31924 3.25827 7.3113 3.74279 7.32351C3.92151 7.32778 3.9797 7.28323 3.97614 7.08918C3.96426 6.38803 3.96901 5.68626 3.97198 4.9851C3.97376 4.53842 4.13467 4.24917 4.46065 4.13078C4.82582 3.99775 5.12924 4.10576 5.40059 4.38769C6.39515 5.42081 7.39921 6.44417 8.39734 7.47363C8.82604 7.91543 8.82366 8.35541 8.39496 8.79661C7.38199 9.83888 6.37081 10.883 5.35249 11.9198C4.92914 12.3506 4.31043 12.267 4.05273 11.7587C3.97673 11.6092 3.97139 11.4462 3.97139 11.2833C3.97079 10.6127 3.95951 9.9414 3.97732 9.27075C3.98386 9.02361 3.92923 8.94306 3.6751 8.94733C2.74585 8.96381 1.81541 8.96076 0.885572 8.9516C0.218176 8.94489 -0.18915 8.33893 0.0881404 7.77569C0.239551 7.46813 0.497247 7.31985 0.833914 7.31985C1.31902 7.31985 1.80354 7.31985 2.28865 7.31924Z" fill="#828282"/>
</g>
<defs>
<clipPath id="clip0_878_2336">
<rect width="19" height="19.5072" fill="white"/>
</clipPath>
</defs>
</svg>
