<svg width="10" height="11" viewBox="0 0 10 11" fill="none" xmlns="http://www.w3.org/2000/svg">
<path d="M4.99337 0.345703C5.80037 0.348517 6.60287 0.418863 7.39524 0.567432C8.31086 0.739075 9.17301 1.71209 9.33228 2.71212C9.52137 3.89843 9.50336 5.08023 9.26587 6.25866C9.12124 6.97562 8.1713 7.90024 7.43351 8.04431C6.58486 8.21033 5.72777 8.28686 4.86393 8.26323C4.68835 8.25816 4.56736 8.31106 4.44805 8.43599C3.94381 8.96499 3.43226 9.48724 2.92015 10.0084C2.85205 10.0776 2.79578 10.2087 2.67703 10.1648C2.54084 10.1147 2.59543 9.97121 2.59431 9.86654C2.5898 9.33248 2.58699 8.79785 2.59543 8.26379C2.59768 8.11916 2.55379 8.05332 2.4131 8.00492C1.87341 7.81921 1.46315 7.4551 1.11086 7.01727C0.863245 6.70944 0.735497 6.35321 0.673031 5.96828C0.477752 4.75439 0.438358 3.53151 0.752943 2.34295C0.999996 1.41045 1.68882 0.804918 2.62076 0.573622C3.39287 0.382283 4.19593 0.349642 4.99337 0.345703ZM7.52018 6.27217C7.5078 6.14386 7.44814 6.04143 7.34403 5.96546C7.08741 5.77694 6.83586 5.58222 6.57305 5.40326C6.19431 5.14495 6.04517 5.15958 5.76773 5.51244C5.58146 5.74936 5.38055 5.76174 5.12505 5.65425C4.47788 5.38188 4.03554 4.91197 3.75698 4.27604C3.5859 3.88605 3.59603 3.84384 3.92693 3.56359C4.18017 3.34917 4.219 3.16459 4.04173 2.87645C3.89485 2.63784 3.72715 2.41217 3.56507 2.18256C3.24993 1.73742 3.06084 1.75149 2.61457 2.08408C2.46318 2.19663 2.33769 2.33732 2.25046 2.50672C2.16492 2.67217 2.14803 2.841 2.21332 3.02164C2.93815 5.0279 4.29779 6.40667 6.29335 7.15908C6.75988 7.3341 7.53031 6.77528 7.52018 6.27217ZM7.6997 4.24059C7.62935 2.75321 6.69629 1.73066 5.21172 1.53088C5.05921 1.51062 4.81272 1.42846 4.78908 1.65694C4.76489 1.89274 5.01644 1.84322 5.1712 1.85222C6.20444 1.91244 7.09642 2.68117 7.31308 3.68458C7.36711 3.93388 7.35473 4.18657 7.40143 4.43418C7.41888 4.52816 7.46728 4.59682 7.56689 4.58894C7.66706 4.5805 7.70364 4.50509 7.70026 4.40829C7.69801 4.35258 7.6997 4.2963 7.6997 4.24059ZM5.28319 2.23659C5.18021 2.24165 5.02319 2.19326 5.01363 2.37447C5.00519 2.53204 5.15094 2.51572 5.25899 2.53598C6.20725 2.71606 6.58486 3.12632 6.68954 4.08696C6.70136 4.19444 6.71317 4.3115 6.84936 4.30531C6.99624 4.29912 7.01088 4.17475 7.01144 4.05657C7.01932 3.12238 6.21569 2.26979 5.28319 2.23659ZM5.43176 2.971C5.36817 2.97831 5.24549 2.93498 5.22523 3.08974C5.21453 3.17415 5.25337 3.24788 5.34003 3.25294C5.77167 3.2777 5.97089 3.52138 6.00859 3.93276C6.0176 4.02899 6.09132 4.08583 6.18418 4.0757C6.29166 4.06388 6.29448 3.97046 6.29785 3.88267C6.31643 3.39926 5.94388 2.99069 5.43176 2.971Z" fill="#6F40AA"/>
</svg>
