<svg width="10" height="10" viewBox="0 0 10 10" fill="none" xmlns="http://www.w3.org/2000/svg">
<path d="M4.99995 0.588867C7.66061 0.58943 9.71914 2.96309 9.32859 5.58099C9.03371 7.55792 7.47209 9.05032 5.48222 9.28555C4.56551 9.39359 3.71632 9.20564 2.91103 8.7847C2.73039 8.69016 2.56663 8.68003 2.37811 8.72899C1.96281 8.83704 1.54412 8.93214 1.12825 9.03794C0.967872 9.07846 0.935233 9.04469 0.975188 8.87643C1.08549 8.41329 1.16765 7.9434 1.27626 7.48026C1.31846 7.29962 1.22674 7.17187 1.15583 7.03513C0.752903 6.26135 0.572824 5.44424 0.650483 4.57142C0.851384 2.31143 2.73152 0.588305 4.99995 0.588867ZM6.6004 7.67215C7.13276 7.7273 7.57395 7.33845 7.91666 6.79371C8.08155 6.53147 7.98307 6.26641 7.68931 6.16624C7.41582 6.07283 7.13219 6.01036 6.85983 5.91413C6.54244 5.80215 6.29314 5.84604 6.06129 6.1156C5.80186 6.41667 5.6713 6.42173 5.33197 6.21464C4.78442 5.88037 4.31396 5.45268 3.89078 4.97379C3.54018 4.57705 3.53568 4.44762 3.86714 4.03175C4.02696 3.83085 4.05341 3.64345 3.93692 3.41329C3.80242 3.14711 3.69438 2.86743 3.57001 2.59562C3.395 2.21352 3.13051 2.15668 2.81987 2.43017C2.14908 3.02106 1.99826 3.68678 2.3798 4.55679C2.85082 5.63107 3.68369 6.38965 4.63079 7.03625C5.17271 7.40597 5.76247 7.64908 6.6004 7.67215Z" fill="#2AA71B"/>
</svg>
