<svg width="42" height="22" viewBox="0 0 42 22" fill="none" xmlns="http://www.w3.org/2000/svg">
<g clip-path="url(#clip0_1030_2365)">
<path d="M6.19762 18.2173C5.18768 18.2131 4.32475 17.9467 3.60884 17.4183C2.89293 16.8899 2.34535 16.1207 1.96609 15.1108C1.58683 14.1009 1.39719 12.8842 1.39719 11.4609C1.39719 10.0419 1.58683 8.82955 1.96609 7.82386C2.34961 6.81818 2.89933 6.05114 3.61523 5.52273C4.3354 4.99432 5.1962 4.73011 6.19762 4.73011C7.19904 4.73011 8.05771 4.99645 8.77362 5.52912C9.48952 6.05753 10.0371 6.82457 10.4164 7.83026C10.7999 8.83168 10.9917 10.0419 10.9917 11.4609C10.9917 12.8885 10.802 14.1072 10.4228 15.1172C10.0435 16.1229 9.49592 16.892 8.78001 17.4247C8.0641 17.9531 7.2033 18.2173 6.19762 18.2173ZM6.19762 16.5107C7.08398 16.5107 7.77646 16.0781 8.27504 15.2131C8.77788 14.348 9.0293 13.0973 9.0293 11.4609C9.0293 10.3743 8.91424 9.45597 8.68413 8.70597C8.45827 7.9517 8.13228 7.38068 7.70614 6.9929C7.28427 6.60085 6.78143 6.40483 6.19762 6.40483C5.31552 6.40483 4.62305 6.83949 4.12021 7.70881C3.61737 8.57812 3.36381 9.82884 3.35955 11.4609C3.35955 12.5518 3.47248 13.4744 3.69833 14.2287C3.92844 14.9787 4.25444 15.5476 4.67631 15.9354C5.09819 16.3189 5.60529 16.5107 6.19762 16.5107Z" fill="#AD2808"/>
<g clip-path="url(#clip1_1030_2365)">
<path d="M24.0447 5.37515C27.715 5.37515 31.3087 5.37515 34.9629 5.37515C34.1068 4.08338 33.2792 2.83156 32.4488 1.58184C32.2804 1.32881 32.1279 1.07228 32.1941 0.750566C32.2734 0.362263 32.5066 0.100825 32.8915 0.0216224C33.2966 -0.0624865 33.6196 0.102928 33.8472 0.445671C34.466 1.37788 35.082 2.31219 35.6987 3.2458C36.11 3.8682 36.5311 4.4843 36.9272 5.11582C37.0636 5.3338 37.2174 5.40249 37.4659 5.39968C38.6262 5.38707 39.7873 5.39197 40.9476 5.39478C41.5907 5.39618 42 5.74874 42 6.29264C42 6.83724 41.5921 7.1863 40.949 7.1926C40.1958 7.20031 40.1687 7.19751 40.1005 7.90683C39.9467 9.51541 39.8241 11.1275 39.6849 12.7382C39.6014 13.7068 39.5381 14.6783 39.417 15.6427C39.2429 17.0354 38.1397 17.9775 36.7093 17.981C33.5548 17.9873 30.401 17.9831 27.2465 17.9831C25.6846 17.9831 24.1199 17.934 22.5607 17.9971C21.1039 18.056 19.6262 17.1917 19.4905 15.1129C19.3234 12.5595 19.0784 10.011 18.8779 7.45965C18.8605 7.24097 18.793 7.17578 18.5877 7.1898C18.3656 7.20452 18.1415 7.20031 17.9188 7.1912C17.3821 7.16947 17.0007 6.79309 17 6.29474C16.9993 5.79079 17.3738 5.40459 17.916 5.39898C19.0909 5.38707 20.2673 5.38356 21.4422 5.40249C21.7582 5.40739 21.9426 5.32048 22.1208 5.04502C23.1085 3.51635 24.1227 2.00519 25.125 0.485623C25.3609 0.127459 25.679 -0.0645892 26.1057 0.0209215C26.4892 0.0980213 26.7266 0.356656 26.8059 0.74636C26.8672 1.04845 26.7412 1.29868 26.5797 1.54119C25.7786 2.74605 24.9809 3.95301 24.1818 5.15927C24.1429 5.21745 24.1067 5.27703 24.0447 5.37515ZM28.6602 15.286C29.0291 15.253 29.357 15.0848 29.5818 14.7288C29.8915 14.2381 30.2068 13.7503 30.5194 13.2611C31.2962 12.0429 32.0723 10.8233 32.8497 9.60513C33.078 9.24766 33.1233 8.88249 32.8811 8.51592C32.6806 8.21242 32.3876 8.11079 32.0333 8.14584C31.7235 8.17668 31.5286 8.36873 31.3498 8.59722C30.4386 9.75863 29.5177 10.9116 28.6185 12.0814C28.4284 12.3289 28.2997 12.3366 28.063 12.1508C27.5598 11.7562 27.037 11.3868 26.515 11.0189C26.0486 10.6901 25.5628 10.7357 25.2384 11.1219C24.9315 11.4871 24.9579 11.9875 25.3296 12.3744C26.1454 13.2239 26.9716 14.0622 27.7915 14.9075C28.0199 15.1423 28.2941 15.2692 28.6602 15.286Z" fill="#AD2808"/>
</g>
</g>
<defs>
<clipPath id="clip0_1030_2365">
<rect width="42" height="22" fill="white"/>
</clipPath>
<clipPath id="clip1_1030_2365">
<rect width="25" height="18" fill="white" transform="translate(17)"/>
</clipPath>
</defs>
</svg>
