<svg width="456" height="39" viewBox="0 0 456 39" fill="none" xmlns="http://www.w3.org/2000/svg">
<g clip-path="url(#clip0_1_234)">
<path d="M455.75 0.899414L453.07 10.617L427.669 28.1978H448.229L445.463 38.3369H409.998L412.764 28.1978L438.153 10.5688H418.21L420.877 0.899414H455.75Z" fill="white"/>
<path d="M416.667 0.899414L406.369 38.3369H394.316L404.615 0.899414H416.667Z" fill="white"/>
<path d="M385.672 10.5688H372.398L371.014 15.5661H384.289L385.672 10.5688ZM382.264 23.044H368.989L367.606 28.0894H380.881L382.264 23.044ZM398.688 5.31869C398.688 6.11344 398.527 7.10086 398.206 8.28094C397.206 11.9898 396.576 14.1091 396.292 14.6269C395.329 16.6378 393.748 18.0708 391.55 18.9378C393.155 19.7687 393.946 21.033 393.946 22.7309C393.946 23.4293 393.822 24.2241 393.575 25.1272L392.242 29.9077C391.427 32.7857 390.254 34.8809 388.722 36.2055C387.092 37.6264 384.771 38.3369 381.795 38.3369H352.887L363.173 0.899414H392.18C396.527 0.899414 398.688 2.36849 398.688 5.31869Z" fill="white"/>
<path d="M324.286 10.1474H311.061L309.517 15.8672H322.743L324.286 10.1474ZM338.907 0.899414L328.608 38.3369H316.717L320.829 23.3571H307.603L303.491 38.3369H291.6L299.33 10.1474C300.33 6.51082 302.047 3.99411 304.504 2.60932C306.566 1.46537 309.653 0.899414 313.778 0.899414H338.907Z" fill="white"/>
<path d="M297.947 0.899414L282.005 15.5661C288.401 15.5661 291.6 17.842 291.6 22.3817C291.6 23.4895 291.402 24.7539 291.007 26.1748L287.648 38.3489H275.756L279.967 23.056H266.692L262.482 38.3489H250.59L260.876 0.911456H272.768L268.718 15.5782H270.101L286.043 0.911456H297.947V0.899414Z" fill="white"/>
<path d="M256.245 0.899414L245.958 38.3369H233.906L244.193 0.899414H256.245Z" fill="white"/>
<path d="M240.737 0.899414L238.069 10.5688H226.338L218.707 38.3369H206.654L214.286 10.5688H202.555L205.21 0.899414H240.737Z" fill="white"/>
<path d="M201.912 0.899414L191.613 38.3369H178.066L171.299 19.1425L166.014 38.3369H154.555L164.841 0.899414H178.387L185.167 20.0817L190.44 0.899414H201.912Z" fill="white"/>
<path d="M145.911 10.1474H132.686L131.142 15.8672H144.368L145.911 10.1474ZM160.371 0.899414L150.085 38.3369H138.193L142.305 23.3571H129.08L124.968 38.3369H113.076L120.806 10.1474C121.807 6.51082 123.523 3.99411 125.98 2.60932C128.043 1.46537 131.13 0.899414 135.254 0.899414H160.371Z" fill="white"/>
<path d="M112.632 28.1978L109.866 38.3369H79.1426L89.4413 0.899414H101.494L93.9732 28.1978H112.632Z" fill="white"/>
<path d="M86.1311 0.899414L83.4638 10.5688H71.7326L64.1135 38.3369H52.0613L59.6804 10.5688H47.9492L50.6165 0.899414H86.1311Z" fill="white"/>
<path d="M32.8596 10.1474H19.6343L18.0907 15.8672H31.316L32.8596 10.1474ZM47.3075 0.899414L37.0211 38.3369H25.1294L29.2415 23.3571H16.0038L11.8917 38.3369H0L7.73022 10.1474C8.73045 6.51082 10.4469 3.99411 12.9043 2.60932C14.9665 1.46537 18.0537 0.899414 22.1781 0.899414H47.3075Z" fill="white"/>
<path d="M349.144 27.9326L346.267 38.3366H335.215L338.104 27.9326H349.144Z" fill="#01A0C6"/>
</g>
<defs>
<clipPath id="clip0_1_234">
<rect width="455.75" height="37.4495" fill="white" transform="translate(0 0.899414)"/>
</clipPath>
</defs>
</svg>
