<svg width="261" height="50" viewBox="0 0 261 50" fill="none" xmlns="http://www.w3.org/2000/svg">
<g clip-path="url(#clip0_878_2343)">
<g clip-path="url(#clip1_878_2343)">
<path fill-rule="evenodd" clip-rule="evenodd" d="M25.2632 0H235.263C249.158 0 260.526 11.2488 260.526 24.9973C260.526 38.7458 249.158 49.9946 235.263 49.9946H25.2632C11.3684 50 0 38.7512 0 24.9973C0 11.2434 11.3684 0 25.2632 0Z" fill="black"/>
<path opacity="0.2" fill-rule="evenodd" clip-rule="evenodd" d="M25.2632 0H235.263C249.158 0 260.526 11.2488 260.526 24.9973C260.526 25.9455 260.472 26.8829 260.363 27.8041C225.697 24.5178 180.152 22.5191 130.263 22.5191C80.3739 22.5191 34.8294 24.5178 0.163339 27.8095C0.0544465 26.8829 0 25.9455 0 24.9973C0 11.2488 11.3684 0 25.2632 0Z" fill="white"/>
<path d="M244.454 16.625L243.272 20.9726L232.073 28.8381H241.138L239.918 33.3743H224.281L225.501 28.8381L236.695 20.951H227.902L229.078 16.625H244.454Z" fill="white"/>
<path d="M227.222 16.625L222.681 33.3743H217.367L221.908 16.625H227.222Z" fill="white"/>
<path d="M213.555 20.951H207.702L207.092 23.1868H212.945L213.555 20.951ZM212.052 26.5323H206.199L205.59 28.7896H211.443L212.052 26.5323ZM219.294 18.6022C219.294 18.9577 219.223 19.3995 219.081 19.9274C218.64 21.5868 218.363 22.5349 218.238 22.7666C217.813 23.6663 217.116 24.3074 216.147 24.6953C216.855 25.067 217.203 25.6327 217.203 26.3923C217.203 26.7047 217.149 27.0603 217.04 27.4643L216.452 29.6031C216.092 30.8907 215.575 31.8281 214.9 32.4207C214.181 33.0564 213.158 33.3743 211.846 33.3743H199.1L203.635 16.625H216.424C218.341 16.625 219.294 17.2823 219.294 18.6022Z" fill="white"/>
<path d="M186.49 20.7625H180.659L179.978 23.3215H185.81L186.49 20.7625ZM192.937 16.625L188.396 33.3743H183.153L184.966 26.6724H179.134L177.321 33.3743H172.078L175.486 20.7625C175.927 19.1355 176.684 18.0095 177.768 17.39C178.677 16.8782 180.038 16.625 181.857 16.625H192.937Z" fill="white"/>
<path d="M174.876 16.625L167.847 23.1868C170.668 23.1868 172.078 24.205 172.078 26.236C172.078 26.7317 171.991 27.2973 171.816 27.933L170.335 33.3797H165.092L166.949 26.5377H161.096L159.239 33.3797H153.996L158.531 16.6304H163.775L161.989 23.1922H162.599L169.628 16.6304H174.876V16.625Z" fill="white"/>
<path d="M156.49 16.625L151.955 33.3743H146.641L151.176 16.625H156.49Z" fill="white"/>
<path d="M149.651 16.625L148.475 20.951H143.303L139.938 33.3743H134.624L137.989 20.951H132.816L133.987 16.625H149.651Z" fill="white"/>
<path d="M132.535 16.625L127.994 33.3743H122.021L119.037 24.7868L116.707 33.3743H111.654L116.19 16.625H122.162L125.152 25.2071L127.476 16.625H132.535Z" fill="white"/>
<path d="M107.843 20.7625H102.011L101.331 23.3215H107.162L107.843 20.7625ZM114.218 16.625L109.683 33.3743H104.44L106.253 26.6724H100.421L98.6084 33.3743H93.3652L96.7736 20.7625C97.2146 19.1355 97.9714 18.0095 99.0549 17.39C99.9641 16.8782 101.325 16.625 103.144 16.625H114.218Z" fill="white"/>
<path d="M93.1682 28.8381L91.9486 33.3743H78.4023L82.9432 16.625H88.2572L84.9414 28.8381H93.1682Z" fill="white"/>
<path d="M81.4852 16.625L80.3092 20.951H75.1368L71.7774 33.3743H66.4635L69.8228 20.951H64.6504L65.8264 16.625H81.4852Z" fill="white"/>
<path d="M57.996 20.7625H52.1648L51.4842 23.3215H57.3154L57.996 20.7625ZM64.3663 16.625L59.8309 33.3743H54.5877L56.4007 26.6724H50.5641L48.751 33.3743H43.5078L46.9162 20.7625C47.3572 19.1355 48.114 18.0095 49.1975 17.39C50.1067 16.8782 51.4679 16.625 53.2864 16.625H64.3663Z" fill="white"/>
<path d="M197.45 28.7197L196.182 33.3744H191.309L192.583 28.7197H197.45Z" fill="#01A0C6"/>
<path fill-rule="evenodd" clip-rule="evenodd" d="M20.5311 33.3747L19.1428 31.3975L20.5311 33.3747ZM28.7798 16.6523H24.5384C23.9776 16.6523 23.3841 17.1049 23.2154 17.6652L18.4785 33.3801H20.5311H23.8197C24.3805 33.3801 24.974 32.9275 25.1428 32.3672L29.5039 17.6652C29.6673 17.1049 29.3406 16.6523 28.7798 16.6523Z" fill="#01A0C6"/>
<path fill-rule="evenodd" clip-rule="evenodd" d="M28.1874 33.3747L26.799 31.3975L28.1874 33.3747ZM36.436 16.6523H32.1947C31.6339 16.6523 31.0404 17.1049 30.8716 17.6652L26.1348 33.3747H28.1874H31.476C32.0368 33.3747 32.6302 32.9221 32.799 32.3619L37.1602 17.6598C37.3235 17.1049 36.9968 16.6523 36.436 16.6523Z" fill="#333333"/>
<path fill-rule="evenodd" clip-rule="evenodd" d="M35.8417 33.3747L34.4533 31.3975L35.8417 33.3747ZM44.0903 16.6523H39.849C39.2882 16.6523 38.6947 17.1049 38.5259 17.6652L33.7891 33.3801H35.8417H39.1303C39.6911 33.3801 40.2845 32.9275 40.4533 32.3672L44.8145 17.6652C44.9778 17.1049 44.6511 16.6523 44.0903 16.6523Z" fill="#01A0C6"/>
</g>
</g>
<defs>
<clipPath id="clip0_878_2343">
<rect width="260.526" height="50" fill="white"/>
</clipPath>
<clipPath id="clip1_878_2343">
<rect width="260.526" height="49.9946" fill="white"/>
</clipPath>
</defs>
</svg>
