<svg width="21" height="18" viewBox="0 0 21 18" fill="none" xmlns="http://www.w3.org/2000/svg">
<path d="M14.5552 4.95104H8.70216L8.09235 7.18679H13.9453L14.5552 4.95104ZM13.0524 10.5323H7.19943L6.58964 12.7896H12.4426L13.0524 10.5323ZM20.2938 2.60216C20.2938 2.95772 20.223 3.39949 20.0815 3.92745C19.6405 5.58675 19.3628 6.53492 19.2375 6.76658C18.8129 7.66627 18.1159 8.30736 17.1468 8.69525C17.8546 9.06698 18.2031 9.63265 18.2031 10.3923C18.2031 10.7047 18.1486 11.0603 18.0397 11.4643L17.4517 13.6031C17.0923 14.8907 16.5751 15.8281 15.9 16.4207C15.1813 17.0564 14.1577 17.3743 12.8455 17.3743H0.0996094L4.63501 0.625H17.4245C19.341 0.625 20.2938 1.28226 20.2938 2.60216Z" fill="white"/>
</svg>
